<?xml version="1.0" encoding="UTF-8" standalone="no"?>
<svg
   xmlns:dc="http://purl.org/dc/elements/1.1/"
   xmlns:cc="http://creativecommons.org/ns#"
   xmlns:rdf="http://www.w3.org/1999/02/22-rdf-syntax-ns#"
   xmlns:svg="http://www.w3.org/2000/svg"
   xmlns="http://www.w3.org/2000/svg"
   viewBox="0 0 750 562.5"
   height="562.5"
   width="750"
   version="1.1"
   id="svg3354">
  <metadata
     id="metadata3360">
    <rdf:RDF>
      <cc:Work
         rdf:about="">
        <dc:format>image/svg+xml</dc:format>
        <dc:type
           rdf:resource="http://purl.org/dc/dcmitype/StillImage" />
        <dc:title></dc:title>
      </cc:Work>
    </rdf:RDF>
  </metadata>
  <defs
     id="defs3358" />
  <g
     transform="translate(-3.5876428e-6,1.4841334)"
     id="g3364">
    <path
       id="path3368"
       d="m 3.5876428e-6,279.76587 0,-281.2500034 L 179.0625,-1.3151987 C 286.71314,-1.2136368 353.63839,-0.72196099 346.875,-0.08234052 316.44433,2.795518 280.62733,13.066349 251.875,27.159722 194.86842,55.102329 150.33647,99.634285 122.39386,156.64087 54.23385,295.69622 112.20193,463.90922 251.875,532.37202 c 28.75233,14.09336 64.56933,24.3642 95,27.24206 6.76339,0.63961 -60.16186,1.13129 -167.8125,1.23285 L 3.5876428e-6,561.01587 l 0,-281.25 z M 403.125,559.61408 c 17.41423,-1.64689 42.06897,-6.99111 60.625,-13.14124 89.58515,-29.6917 159.4944,-104.2561 183.25438,-195.45697 C 680.77944,221.37285 618.65809,86.240775 498.125,27.159722 469.37268,13.066349 433.55568,2.795518 403.125,-0.08234052 396.36162,-0.72196099 463.28687,-1.2136368 570.9375,-1.3151987 L 750,-1.4841334 l 0,281.2500034 0,281.25 -179.0625,-0.16894 C 463.28687,560.74537 396.36162,560.25369 403.125,559.61408 Z m -62.54293,-24.3126 C 323.83739,533.02232 297.12058,526.15518 282.5,520.37238 246.23107,506.02713 220.04315,488.7496 191.89702,460.5969 l -16.22799,-16.23177 13.72799,-3.56558 c 18.3268,-4.76002 37.94443,-11.26848 56.44347,-18.72603 l 15.21549,-6.13384 9.73989,6.35826 c 58.64971,38.28695 136.46871,34.26778 209.34591,-10.81221 53.97812,-33.3895 110.40472,-94.37034 145.59386,-157.34486 l 4.88936,-8.75 0.80184,7.5 c 0.441,4.125 0.86288,15.74527 0.9375,25.82282 0.961,129.79111 -95.49354,239.9411 -224.66651,256.56659 -18.58493,2.39201 -49.62571,2.40181 -67.11576,0.0213 z M 351.25,416.56547 c -1.71875,-0.29432 -7.0625,-1.16824 -11.875,-1.94207 -13.18857,-2.12066 -43.125,-12.80466 -43.125,-15.39086 0,-0.27016 7.17188,-4.78329 15.9375,-10.02915 80.03148,-47.8956 147.27895,-121.46475 166.30393,-181.93752 5.24817,-16.68187 7.01096,-28.30117 6.92182,-45.625 C 485.03045,87.240837 421.6045,41.530913 345.73947,60.98052 c -42.84528,10.984293 -87.77904,47.05544 -117.6068,94.41035 -25.5336,40.53745 -38.4977,90.1328 -34.51797,132.05165 2.49239,26.25261 7.15254,43.66863 17.53284,65.52422 6.91668,14.56298 12.11521,22.96134 21.20793,34.26195 l 6.50763,8.08783 -4.74405,1.66462 c -19.25355,6.7558 -60.25638,16.27475 -72.49803,16.83068 l -7.24602,0.32905 -9.3852,-18.75 C 118.10923,341.68819 110.60203,282.66389 123.2883,224.76587 144.1054,129.76005 217.37215,53.812485 310.94452,30.243323 431.54252,-0.13310078 554.73752,57.7982 608.04905,169.95397 614.99272,184.5619 622.5,205.01998 622.5,209.33419 c 0,5.6213 -25.7909,48.81223 -43.22802,72.39213 -37.24576,50.36678 -89.4413,95.62951 -134.77479,116.87351 -13.34761,6.2549 -33.47022,12.88765 -47.13066,15.53507 -10.13873,1.9649 -39.72839,3.52442 -46.11653,2.43057 z m -88.78768,-42.69908 c -26.64103,-28.8416 -38.95155,-64.67484 -37.05213,-107.85052 0.41046,-9.33012 1.91448,-22.46382 3.36388,-29.375 7.27446,-34.68667 27.34236,-78.64768 48.38652,-105.99614 28.14276,-36.573643 63.15154,-56.264768 99.71441,-56.085637 33.3663,0.163471 59.76154,16.25766 74.47894,45.412677 9.429,18.67875 12.29985,44.96791 7.46644,68.37232 -13.46769,65.21338 -81.03049,139.68963 -166.94538,184.02828 -8.9375,4.61243 -17.45011,8.74248 -18.91691,9.1779 -2.15307,0.63912 -4.17534,-0.84137 -10.49577,-7.68388 z"
       style="fill:#fefefe" />
    <path
       id="path3366"
       d="m 346.875,559.61408 c -30.43067,-2.87786 -66.24767,-13.1487 -95,-27.24206 C 194.86842,504.4294 150.33647,459.89745 122.39386,402.89087 54.23385,263.83552 112.20193,95.622519 251.875,27.159722 359.27813,-25.485487 488.88235,-3.7842192 573.71622,81.04965 c 55.38103,55.38103 85.2622,131.58765 82.0842,209.34122 -1.67273,40.92547 -10.47725,75.98373 -28.25323,112.5 C 576.0879,508.60108 464.76362,570.76292 346.875,559.61408 Z m 60.82283,-24.3338 C 536.8708,518.65479 633.32534,408.5048 632.36434,278.71369 c -0.0746,-10.07755 -0.4965,-21.69782 -0.9375,-25.82282 l -0.80184,-7.5 -4.88936,8.75 c -35.18914,62.97452 -91.61574,123.95536 -145.59386,157.34486 -72.8772,45.07999 -150.6962,49.09916 -209.34591,10.81221 l -9.73989,-6.35826 -15.21549,6.13384 c -18.49904,7.45755 -38.11667,13.96601 -56.44347,18.72603 l -13.72799,3.56558 16.22799,16.23177 c 28.14613,28.1527 54.33405,45.43023 90.60298,59.77548 14.62058,5.7828 41.33739,12.64994 58.08207,14.9291 17.49005,2.38061 48.53083,2.37081 67.11576,-0.0213 z M 397.36653,414.1349 c 13.66044,-2.64742 33.78305,-9.28017 47.13066,-15.53507 45.33349,-21.244 97.52903,-66.50673 134.77479,-116.87351 C 596.7091,258.14642 622.5,214.95549 622.5,209.33419 c 0,-7.91815 -16.02756,-45.27572 -27.15467,-63.29302 C 559.45442,87.925758 503.69702,46.636813 438.97205,30.245118 368.5114,12.400852 292.9939,24.910488 233.75,64.240592 144.11372,123.74723 100.47202,230.62723 123.28798,334.76587 c 4.70181,21.46041 11.23871,39.72155 21.70182,60.625 l 9.3852,18.75 7.24602,-0.32905 c 12.24165,-0.55593 53.24448,-10.07488 72.49803,-16.83068 l 4.74405,-1.66462 -6.50763,-8.08783 c -16.73808,-20.80241 -29.03733,-46.79134 -34.94887,-73.84867 -12.96322,-59.33322 3.20424,-123.6441 44.89029,-178.56438 15.90875,-20.95936 43.18674,-45.228683 64.61751,-57.490431 55.53195,-31.772956 115.28024,-27.068617 151.71507,11.945431 17.0997,18.3102 26.63825,44.08351 26.78378,72.37023 0.0891,17.32383 -1.67365,28.94313 -6.92182,45.625 -19.02498,60.47277 -86.27245,134.04192 -166.30393,181.93752 -8.76562,5.24586 -15.9375,9.75899 -15.9375,10.02915 0,2.5862 29.93643,13.2702 43.125,15.39086 4.8125,0.77383 10.15625,1.64775 11.875,1.94207 6.38814,1.09385 35.9778,-0.46567 46.11653,-2.43057 z M 291.875,372.37237 c 85.91489,-44.33865 153.47769,-118.8149 166.94538,-184.02828 4.83341,-23.40441 1.96256,-49.69357 -7.46644,-68.37232 C 436.63654,90.816753 410.2413,74.722564 376.875,74.559093 c -36.56287,-0.179131 -71.57165,19.511994 -99.71441,56.085637 -21.04416,27.34846 -41.11206,71.30947 -48.38652,105.99614 -1.4494,6.91118 -2.95342,20.04488 -3.36388,29.375 -1.89942,43.17568 10.4111,79.00892 37.05213,107.85052 6.32043,6.84251 8.3427,8.323 10.49577,7.68388 1.4668,-0.43542 9.97941,-4.56547 18.91691,-9.1779 z"
       style="fill:#030303" />
  </g>
</svg>
